<svg xmlns="http://www.w3.org/2000/svg" width="32" height="32" viewBox="0 0 32 32" fill="rgb(248, 220, 204)"><path d="m14 13.8.2-.8-1-.3.3-1-.8-.2-.3 1.2-1 .6v-1.1l.9-.9-.6-.6-.7.7-.7-.7-.6.6.9.9v1.1l-1-.6-.3-1.2-.8.2.3 1-1 .3.2.8 1.2-.4 1 .6-1 .6-1.2-.4-.2.8 1 .3-.3 1 .8.2.3-1.2 1-.6v1.1l-.9.9.6.6.7-.7.7.7.6-.6-.9-.9v-1.1l1 .6.3 1.2.8-.2-.3-1 1-.3-.2-.8-1.2.4-1-.6 1-.6 1.2.4Z"/><path d="M17.5 8H17V4H5v15.5C5 20.9 6.1 22 7.5 22h7c1.4 0 2.5-1.1 2.5-2.5V14h.5c1.5 0 3-.8 3-3s-1.5-3-3-3ZM16 5v3H6V5h10Zm-1.5 16h-7c-.8 0-1.5-.7-1.5-1.5V9h10v10.5c0 .8-.7 1.5-1.5 1.5Zm3-8H17V9h.5c.9 0 2 .3 2 2s-1.1 2-2 2Z"/></svg>