<svg id="my-svg" width="100%" xmlns="http://www.w3.org/2000/svg" xmlns:xlink="http://www.w3.org/1999/xlink" class="flowchart" style="max-width: 1245.44px; background-color: white;" viewBox="0 0 1245.4375 1154" role="graphics-document document" aria-roledescription="flowchart-v2"><style>#my-svg{font-family:"trebuchet ms",verdana,arial,sans-serif;font-size:16px;fill:#333;}@keyframes edge-animation-frame{from{stroke-dashoffset:0;}}@keyframes dash{to{stroke-dashoffset:0;}}#my-svg .edge-animation-slow{stroke-dasharray:9,5!important;stroke-dashoffset:900;animation:dash 50s linear infinite;stroke-linecap:round;}#my-svg .edge-animation-fast{stroke-dasharray:9,5!important;stroke-dashoffset:900;animation:dash 20s linear infinite;stroke-linecap:round;}#my-svg .error-icon{fill:#552222;}#my-svg .error-text{fill:#552222;stroke:#552222;}#my-svg .edge-thickness-normal{stroke-width:1px;}#my-svg .edge-thickness-thick{stroke-width:3.5px;}#my-svg .edge-pattern-solid{stroke-dasharray:0;}#my-svg .edge-thickness-invisible{stroke-width:0;fill:none;}#my-svg .edge-pattern-dashed{stroke-dasharray:3;}#my-svg .edge-pattern-dotted{stroke-dasharray:2;}#my-svg .marker{fill:#333333;stroke:#333333;}#my-svg .marker.cross{stroke:#333333;}#my-svg svg{font-family:"trebuchet ms",verdana,arial,sans-serif;font-size:16px;}#my-svg p{margin:0;}#my-svg .label{font-family:"trebuchet ms",verdana,arial,sans-serif;color:#333;}#my-svg .cluster-label text{fill:#333;}#my-svg .cluster-label span{color:#333;}#my-svg .cluster-label span p{background-color:transparent;}#my-svg .label text,#my-svg span{fill:#333;color:#333;}#my-svg .node rect,#my-svg .node circle,#my-svg .node ellipse,#my-svg .node polygon,#my-svg .node path{fill:#ECECFF;stroke:#9370DB;stroke-width:1px;}#my-svg .rough-node .label text,#my-svg .node .label text,#my-svg .image-shape .label,#my-svg .icon-shape .label{text-anchor:middle;}#my-svg .node .katex path{fill:#000;stroke:#000;stroke-width:1px;}#my-svg .rough-node .label,#my-svg .node .label,#my-svg .image-shape .label,#my-svg .icon-shape .label{text-align:center;}#my-svg .node.clickable{cursor:pointer;}#my-svg .root .anchor path{fill:#333333!important;stroke-width:0;stroke:#333333;}#my-svg .arrowheadPath{fill:#333333;}#my-svg .edgePath .path{stroke:#333333;stroke-width:2.0px;}#my-svg .flowchart-link{stroke:#333333;fill:none;}#my-svg .edgeLabel{background-color:rgba(232,232,232, 0.8);text-align:center;}#my-svg .edgeLabel p{background-color:rgba(232,232,232, 0.8);}#my-svg .edgeLabel rect{opacity:0.5;background-color:rgba(232,232,232, 0.8);fill:rgba(232,232,232, 0.8);}#my-svg .labelBkg{background-color:rgba(232, 232, 232, 0.5);}#my-svg .cluster rect{fill:#ffffde;stroke:#aaaa33;stroke-width:1px;}#my-svg .cluster text{fill:#333;}#my-svg .cluster span{color:#333;}#my-svg div.mermaidTooltip{position:absolute;text-align:center;max-width:200px;padding:2px;font-family:"trebuchet ms",verdana,arial,sans-serif;font-size:12px;background:hsl(80, 100%, 96.2745098039%);border:1px solid #aaaa33;border-radius:2px;pointer-events:none;z-index:100;}#my-svg .flowchartTitleText{text-anchor:middle;font-size:18px;fill:#333;}#my-svg rect.text{fill:none;stroke-width:0;}#my-svg .icon-shape,#my-svg .image-shape{background-color:rgba(232,232,232, 0.8);text-align:center;}#my-svg .icon-shape p,#my-svg .image-shape p{background-color:rgba(232,232,232, 0.8);padding:2px;}#my-svg .icon-shape .label rect,#my-svg .image-shape .label rect{opacity:0.5;background-color:rgba(232,232,232, 0.8);fill:rgba(232,232,232, 0.8);}#my-svg .label-icon{display:inline-block;height:1em;overflow:visible;vertical-align:-0.125em;}#my-svg .node .label-icon path{fill:currentColor;stroke:revert;stroke-width:revert;}#my-svg :root{--mermaid-font-family:"trebuchet ms",verdana,arial,sans-serif;}</style><g><marker id="my-svg_flowchart-v2-pointEnd" class="marker flowchart-v2" viewBox="0 0 10 10" refX="5" refY="5" markerUnits="userSpaceOnUse" markerWidth="8" markerHeight="8" orient="auto"><path d="M 0 0 L 10 5 L 0 10 z" class="arrowMarkerPath" style="stroke-width: 1; stroke-dasharray: 1, 0;"/></marker><marker id="my-svg_flowchart-v2-pointStart" class="marker flowchart-v2" viewBox="0 0 10 10" refX="4.5" refY="5" markerUnits="userSpaceOnUse" markerWidth="8" markerHeight="8" orient="auto"><path d="M 0 5 L 10 10 L 10 0 z" class="arrowMarkerPath" style="stroke-width: 1; stroke-dasharray: 1, 0;"/></marker><marker id="my-svg_flowchart-v2-circleEnd" class="marker flowchart-v2" viewBox="0 0 10 10" refX="11" refY="5" markerUnits="userSpaceOnUse" markerWidth="11" markerHeight="11" orient="auto"><circle cx="5" cy="5" r="5" class="arrowMarkerPath" style="stroke-width: 1; stroke-dasharray: 1, 0;"/></marker><marker id="my-svg_flowchart-v2-circleStart" class="marker flowchart-v2" viewBox="0 0 10 10" refX="-1" refY="5" markerUnits="userSpaceOnUse" markerWidth="11" markerHeight="11" orient="auto"><circle cx="5" cy="5" r="5" class="arrowMarkerPath" style="stroke-width: 1; stroke-dasharray: 1, 0;"/></marker><marker id="my-svg_flowchart-v2-crossEnd" class="marker cross flowchart-v2" viewBox="0 0 11 11" refX="12" refY="5.2" markerUnits="userSpaceOnUse" markerWidth="11" markerHeight="11" orient="auto"><path d="M 1,1 l 9,9 M 10,1 l -9,9" class="arrowMarkerPath" style="stroke-width: 2; stroke-dasharray: 1, 0;"/></marker><marker id="my-svg_flowchart-v2-crossStart" class="marker cross flowchart-v2" viewBox="0 0 11 11" refX="-1" refY="5.2" markerUnits="userSpaceOnUse" markerWidth="11" markerHeight="11" orient="auto"><path d="M 1,1 l 9,9 M 10,1 l -9,9" class="arrowMarkerPath" style="stroke-width: 2; stroke-dasharray: 1, 0;"/></marker><g class="root"><g class="clusters"><g class="cluster" id="subGraph2" data-look="classic"><rect style="" x="792.59375" y="8" width="300.671875" height="436"/><g class="cluster-label" transform="translate(871.0625, 8)"><foreignObject width="143.734375" height="24"><div xmlns="http://www.w3.org/1999/xhtml" style="display: table-cell; white-space: nowrap; line-height: 1.5;"><span class="nodeLabel"><p>Specialized Services</p></span></div></foreignObject></g></g><g class="cluster" id="subGraph1" data-look="classic"><rect style="" x="456.640625" y="464" width="636.625" height="682"/><g class="cluster-label" transform="translate(706.953125, 464)"><foreignObject width="136" height="24"><div xmlns="http://www.w3.org/1999/xhtml" style="display: table-cell; white-space: nowrap; line-height: 1.5;"><span class="nodeLabel"><p>Core Orchestration</p></span></div></foreignObject></g></g><g class="cluster" id="subGraph0" data-look="classic"><rect style="" x="456.640625" y="184" width="285.953125" height="124"/><g class="cluster-label" transform="translate(506.0078125, 184)"><foreignObject width="187.21875" height="24"><div xmlns="http://www.w3.org/1999/xhtml" style="display: table-cell; white-space: nowrap; line-height: 1.5;"><span class="nodeLabel"><p>Browser-Side Acceleration</p></span></div></foreignObject></g></g></g><g class="edgePaths"><path d="M161.813,267L165.979,267C170.146,267,178.479,267,186.146,267C193.813,267,200.813,267,204.313,267L207.813,267" id="L_U_N_0" class="edge-thickness-normal edge-pattern-solid edge-thickness-normal edge-pattern-solid flowchart-link" style=";" data-edge="true" data-et="edge" data-id="L_U_N_0" data-points="W3sieCI6MTYxLjgxMjUsInkiOjI2N30seyJ4IjoxODYuODEyNSwieSI6MjY3fSx7IngiOjIxMS44MTI1LCJ5IjoyNjd9XQ==" marker-end="url(#my-svg_flowchart-v2-pointEnd)"/><path d="M316.86,294L335.99,361.667C355.12,429.333,393.38,564.667,416.677,632.333C439.974,700,448.307,700,455.974,700C463.641,700,470.641,700,474.141,700L477.641,700" id="L_N_E_0" class="edge-thickness-normal edge-pattern-solid edge-thickness-normal edge-pattern-solid flowchart-link" style=";" data-edge="true" data-et="edge" data-id="L_N_E_0" data-points="W3sieCI6MzE2Ljg1OTc3MTkzOTk1MzgsInkiOjI5NH0seyJ4Ijo0MzEuNjQwNjI1LCJ5Ijo3MDB9LHsieCI6NDU2LjY0MDYyNSwieSI6NzAwfSx7IngiOjQ4MS42NDA2MjUsInkiOjcwMH1d" marker-end="url(#my-svg_flowchart-v2-pointEnd)"/><path d="M326.004,240L343.61,211.667C361.216,183.333,396.428,126.667,418.201,98.333C439.974,70,448.307,70,476.303,70C504.299,70,551.958,70,599.617,70C647.276,70,694.935,70,722.931,70C750.927,70,759.26,70,767.594,70C775.927,70,784.26,70,797.52,70C810.779,70,828.964,70,838.056,70L847.148,70" id="L_N_P_0" class="edge-thickness-normal edge-pattern-solid edge-thickness-normal edge-pattern-solid flowchart-link" style=";" data-edge="true" data-et="edge" data-id="L_N_P_0" data-points="W3sieCI6MzI2LjAwNDEyNDM2NTQ4MjI2LCJ5IjoyNDB9LHsieCI6NDMxLjY0MDYyNSwieSI6NzB9LHsieCI6NDU2LjY0MDYyNSwieSI6NzB9LHsieCI6NTk5LjYxNzE4NzUsInkiOjcwfSx7IngiOjc0Mi41OTM3NSwieSI6NzB9LHsieCI6NzY3LjU5Mzc1LCJ5Ijo3MH0seyJ4Ijo3OTIuNTkzNzUsInkiOjcwfSx7IngiOjg1MS4xNDg0Mzc1LCJ5Ijo3MH1d" marker-end="url(#my-svg_flowchart-v2-pointEnd)"/><path d="M406.641,250.289L410.807,249.574C414.974,248.859,423.307,247.43,431.641,246.715C439.974,246,448.307,246,461.888,246C475.469,246,494.297,246,503.711,246L513.125,246" id="L_N_W_0" class="edge-thickness-normal edge-pattern-solid edge-thickness-normal edge-pattern-solid flowchart-link" style=";" data-edge="true" data-et="edge" data-id="L_N_W_0" data-points="W3sieCI6NDA2LjY0MDYyNSwieSI6MjUwLjI4ODcyMjk1NjE1NTQ4fSx7IngiOjQzMS42NDA2MjUsInkiOjI0Nn0seyJ4Ijo0NTYuNjQwNjI1LCJ5IjoyNDZ9LHsieCI6NTE3LjEyNSwieSI6MjQ2fV0=" marker-end="url(#my-svg_flowchart-v2-pointEnd)"/><path d="M624.363,673L644.068,651.5C663.773,630,703.184,587,727.055,565.5C750.927,544,759.26,544,767.594,544C775.927,544,784.26,544,799.021,544C813.781,544,834.969,544,845.563,544L856.156,544" id="L_E_O_0" class="edge-thickness-normal edge-pattern-solid edge-thickness-normal edge-pattern-solid flowchart-link" style=";" data-edge="true" data-et="edge" data-id="L_E_O_0" data-points="W3sieCI6NjI0LjM2MzEzMTAwOTYxNTQsInkiOjY3M30seyJ4Ijo3NDIuNTkzNzUsInkiOjU0NH0seyJ4Ijo3NjcuNTkzNzUsInkiOjU0NH0seyJ4Ijo3OTIuNTkzNzUsInkiOjU0NH0seyJ4Ijo4NjAuMTU2MjUsInkiOjU0NH1d" marker-end="url(#my-svg_flowchart-v2-pointEnd)"/><path d="M673.855,673L685.311,668.833C696.768,664.667,719.681,656.333,735.304,652.167C750.927,648,759.26,648,767.594,648C775.927,648,784.26,648,800.421,648C816.581,648,840.568,648,852.561,648L864.555,648" id="L_E_C_0" class="edge-thickness-normal edge-pattern-solid edge-thickness-normal edge-pattern-solid flowchart-link" style=";" data-edge="true" data-et="edge" data-id="L_E_C_0" data-points="W3sieCI6NjczLjg1NTAxODAyODg0NjIsInkiOjY3M30seyJ4Ijo3NDIuNTkzNzUsInkiOjY0OH0seyJ4Ijo3NjcuNTkzNzUsInkiOjY0OH0seyJ4Ijo3OTIuNTkzNzUsInkiOjY0OH0seyJ4Ijo4NjguNTU0Njg3NSwieSI6NjQ4fV0=" marker-end="url(#my-svg_flowchart-v2-pointEnd)"/><path d="M673.855,727L685.311,731.167C696.768,735.333,719.681,743.667,735.304,747.833C750.927,752,759.26,752,767.594,752C775.927,752,784.26,752,794.146,752C804.031,752,815.469,752,821.188,752L826.906,752" id="L_E_A_0" class="edge-thickness-normal edge-pattern-solid edge-thickness-normal edge-pattern-solid flowchart-link" style=";" data-edge="true" data-et="edge" data-id="L_E_A_0" data-points="W3sieCI6NjczLjg1NTAxODAyODg0NjIsInkiOjcyN30seyJ4Ijo3NDIuNTkzNzUsInkiOjc1Mn0seyJ4Ijo3NjcuNTkzNzUsInkiOjc1Mn0seyJ4Ijo3OTIuNTkzNzUsInkiOjc1Mn0seyJ4Ijo4MzAuOTA2MjUsInkiOjc1Mn1d" marker-end="url(#my-svg_flowchart-v2-pointEnd)"/><path d="M624.363,727L644.068,748.5C663.773,770,703.184,813,727.055,834.5C750.927,856,759.26,856,767.594,856C775.927,856,784.26,856,797.85,856C811.44,856,830.286,856,839.71,856L849.133,856" id="L_E_PR_0" class="edge-thickness-normal edge-pattern-solid edge-thickness-normal edge-pattern-solid flowchart-link" style=";" data-edge="true" data-et="edge" data-id="L_E_PR_0" data-points="W3sieCI6NjI0LjM2MzEzMTAwOTYxNTQsInkiOjcyN30seyJ4Ijo3NDIuNTkzNzUsInkiOjg1Nn0seyJ4Ijo3NjcuNTkzNzUsInkiOjg1Nn0seyJ4Ijo3OTIuNTkzNzUsInkiOjg1Nn0seyJ4Ijo4NTMuMTMyODEyNSwieSI6ODU2fV0=" marker-end="url(#my-svg_flowchart-v2-pointEnd)"/><path d="M614.465,727L635.82,765.833C657.174,804.667,699.884,882.333,725.406,921.167C750.927,960,759.26,960,767.594,960C775.927,960,784.26,960,797.503,960C810.745,960,828.896,960,837.971,960L847.047,960" id="L_E_F_0" class="edge-thickness-normal edge-pattern-solid edge-thickness-normal edge-pattern-solid flowchart-link" style=";" data-edge="true" data-et="edge" data-id="L_E_F_0" data-points="W3sieCI6NjE0LjQ2NDc1MzYwNTc2OTMsInkiOjcyN30seyJ4Ijo3NDIuNTkzNzUsInkiOjk2MH0seyJ4Ijo3NjcuNTkzNzUsInkiOjk2MH0seyJ4Ijo3OTIuNTkzNzUsInkiOjk2MH0seyJ4Ijo4NTEuMDQ2ODc1LCJ5Ijo5NjB9XQ==" marker-end="url(#my-svg_flowchart-v2-pointEnd)"/><path d="M610.223,727L632.284,783.167C654.346,839.333,698.47,951.667,724.699,1007.833C750.927,1064,759.26,1064,767.594,1064C775.927,1064,784.26,1064,796.965,1064C809.669,1064,826.745,1064,835.283,1064L843.82,1064" id="L_E_KAF_0" class="edge-thickness-normal edge-pattern-solid edge-thickness-normal edge-pattern-solid flowchart-link" style=";" data-edge="true" data-et="edge" data-id="L_E_KAF_0" data-points="W3sieCI6NjEwLjIyMjU5MTg2MTI2MzcsInkiOjcyN30seyJ4Ijo3NDIuNTkzNzUsInkiOjEwNjR9LHsieCI6NzY3LjU5Mzc1LCJ5IjoxMDY0fSx7IngiOjc5Mi41OTM3NSwieSI6MTA2NH0seyJ4Ijo4NDcuODIwMzEyNSwieSI6MTA2NH1d" marker-end="url(#my-svg_flowchart-v2-pointEnd)"/><path d="M617.489,673L638.34,641.5C659.191,610,700.892,547,725.91,515.5C750.927,484,759.26,484,767.594,484C775.927,484,784.26,484,811.01,437.433C837.759,390.866,882.925,297.733,905.508,251.166L928.091,204.599" id="L_E_J_0" class="edge-thickness-normal edge-pattern-solid edge-thickness-normal edge-pattern-solid flowchart-link" style=";" data-edge="true" data-et="edge" data-id="L_E_J_0" data-points="W3sieCI6NjE3LjQ4OTI1NzgxMjUsInkiOjY3M30seyJ4Ijo3NDIuNTkzNzUsInkiOjQ4NH0seyJ4Ijo3NjcuNTkzNzUsInkiOjQ4NH0seyJ4Ijo3OTIuNTkzNzUsInkiOjQ4NH0seyJ4Ijo5MjkuODM1OTEyMjk4Mzg3MSwieSI6MjAxfV0=" marker-end="url(#my-svg_flowchart-v2-pointEnd)"/><path d="M619.313,673L639.86,644.833C660.407,616.667,701.5,560.333,726.214,532.167C750.927,504,759.26,504,767.594,504C775.927,504,784.26,504,810.12,471.388C835.98,438.777,879.367,373.554,901.06,340.942L922.754,308.33" id="L_E_K_0" class="edge-thickness-normal edge-pattern-solid edge-thickness-normal edge-pattern-solid flowchart-link" style=";" data-edge="true" data-et="edge" data-id="L_E_K_0" data-points="W3sieCI6NjE5LjMxMjkzODQ1NjYzMjcsInkiOjY3M30seyJ4Ijo3NDIuNTkzNzUsInkiOjUwNH0seyJ4Ijo3NjcuNTkzNzUsInkiOjUwNH0seyJ4Ijo3OTIuNTkzNzUsInkiOjUwNH0seyJ4Ijo5MjQuOTY5MTk5MzkxNTkzLCJ5IjozMDV9XQ==" marker-end="url(#my-svg_flowchart-v2-pointEnd)"/><path d="M621.551,673L641.725,648.167C661.899,623.333,702.246,573.667,726.587,548.833C750.927,524,759.26,524,767.594,524C775.927,524,784.26,524,808.234,505.291C832.208,486.582,871.822,449.164,891.63,430.456L911.437,411.747" id="L_E_G_0" class="edge-thickness-normal edge-pattern-solid edge-thickness-normal edge-pattern-solid flowchart-link" style=";" data-edge="true" data-et="edge" data-id="L_E_G_0" data-points="W3sieCI6NjIxLjU1MTA5MTk3NDQzMTksInkiOjY3M30seyJ4Ijo3NDIuNTkzNzUsInkiOjUyNH0seyJ4Ijo3NjcuNTkzNzUsInkiOjUyNH0seyJ4Ijo3OTIuNTkzNzUsInkiOjUyNH0seyJ4Ijo5MTQuMzQ0Njg1Mjk5Mjk1NywieSI6NDA5fV0=" marker-end="url(#my-svg_flowchart-v2-pointEnd)"/><path d="M608.679,727L630.998,793.5C653.317,860,697.956,993,724.441,1059.5C750.927,1126,759.26,1126,767.594,1126C775.927,1126,784.26,1126,813.483,1126C842.706,1126,892.818,1126,942.93,1126C993.042,1126,1043.154,1126,1072.376,1126C1101.599,1126,1109.932,1126,1125.247,1041.087C1140.562,956.174,1162.859,786.348,1174.007,701.435L1185.155,616.522" id="L_E_DB_0" class="edge-thickness-normal edge-pattern-solid edge-thickness-normal edge-pattern-solid flowchart-link" style=";" data-edge="true" data-et="edge" data-id="L_E_DB_0" data-points="W3sieCI6NjA4LjY3OTA4MjMwNjMzOCwieSI6NzI3fSx7IngiOjc0Mi41OTM3NSwieSI6MTEyNn0seyJ4Ijo3NjcuNTkzNzUsInkiOjExMjZ9LHsieCI6NzkyLjU5Mzc1LCJ5IjoxMTI2fSx7IngiOjk0Mi45Mjk2ODc1LCJ5IjoxMTI2fSx7IngiOjEwOTMuMjY1NjI1LCJ5IjoxMTI2fSx7IngiOjExMTguMjY1NjI1LCJ5IjoxMTI2fSx7IngiOjExODUuNjc1OTU5NTI3MDU4MiwieSI6NjEyLjU1NTg4MDUxNDE5NjR9XQ==" marker-end="url(#my-svg_flowchart-v2-pointEnd)"/><path d="M1034.711,70L1044.47,70C1054.229,70,1073.747,70,1087.673,70C1101.599,70,1109.932,70,1125.176,147.916C1140.419,225.831,1162.572,381.662,1173.649,459.578L1184.726,537.493" id="L_P_DB_0" class="edge-thickness-normal edge-pattern-solid edge-thickness-normal edge-pattern-solid flowchart-link" style=";" data-edge="true" data-et="edge" data-id="L_P_DB_0" data-points="W3sieCI6MTAzNC43MTA5Mzc1LCJ5Ijo3MH0seyJ4IjoxMDkzLjI2NTYyNSwieSI6NzB9LHsieCI6MTExOC4yNjU2MjUsInkiOjcwfSx7IngiOjExODUuMjg4NjMxNDcwMTI4MiwieSI6NTQxLjQ1MzMwNjUxMjE2MTZ9XQ==" marker-end="url(#my-svg_flowchart-v2-pointEnd)"/></g><g class="edgeLabels"><g class="edgeLabel"><g class="label" data-id="L_U_N_0" transform="translate(0, 0)"><foreignObject width="0" height="0"><div xmlns="http://www.w3.org/1999/xhtml" class="labelBkg" style="display: table-cell; white-space: nowrap; line-height: 1.5; max-width: 200px; text-align: center;"><span class="edgeLabel"></span></div></foreignObject></g></g><g class="edgeLabel"><g class="label" data-id="L_N_E_0" transform="translate(0, 0)"><foreignObject width="0" height="0"><div xmlns="http://www.w3.org/1999/xhtml" class="labelBkg" style="display: table-cell; white-space: nowrap; line-height: 1.5; max-width: 200px; text-align: center;"><span class="edgeLabel"></span></div></foreignObject></g></g><g class="edgeLabel"><g class="label" data-id="L_N_P_0" transform="translate(0, 0)"><foreignObject width="0" height="0"><div xmlns="http://www.w3.org/1999/xhtml" class="labelBkg" style="display: table-cell; white-space: nowrap; line-height: 1.5; max-width: 200px; text-align: center;"><span class="edgeLabel"></span></div></foreignObject></g></g><g class="edgeLabel"><g class="label" data-id="L_N_W_0" transform="translate(0, 0)"><foreignObject width="0" height="0"><div xmlns="http://www.w3.org/1999/xhtml" class="labelBkg" style="display: table-cell; white-space: nowrap; line-height: 1.5; max-width: 200px; text-align: center;"><span class="edgeLabel"></span></div></foreignObject></g></g><g class="edgeLabel"><g class="label" data-id="L_E_O_0" transform="translate(0, 0)"><foreignObject width="0" height="0"><div xmlns="http://www.w3.org/1999/xhtml" class="labelBkg" style="display: table-cell; white-space: nowrap; line-height: 1.5; max-width: 200px; text-align: center;"><span class="edgeLabel"></span></div></foreignObject></g></g><g class="edgeLabel"><g class="label" data-id="L_E_C_0" transform="translate(0, 0)"><foreignObject width="0" height="0"><div xmlns="http://www.w3.org/1999/xhtml" class="labelBkg" style="display: table-cell; white-space: nowrap; line-height: 1.5; max-width: 200px; text-align: center;"><span class="edgeLabel"></span></div></foreignObject></g></g><g class="edgeLabel"><g class="label" data-id="L_E_A_0" transform="translate(0, 0)"><foreignObject width="0" height="0"><div xmlns="http://www.w3.org/1999/xhtml" class="labelBkg" style="display: table-cell; white-space: nowrap; line-height: 1.5; max-width: 200px; text-align: center;"><span class="edgeLabel"></span></div></foreignObject></g></g><g class="edgeLabel"><g class="label" data-id="L_E_PR_0" transform="translate(0, 0)"><foreignObject width="0" height="0"><div xmlns="http://www.w3.org/1999/xhtml" class="labelBkg" style="display: table-cell; white-space: nowrap; line-height: 1.5; max-width: 200px; text-align: center;"><span class="edgeLabel"></span></div></foreignObject></g></g><g class="edgeLabel"><g class="label" data-id="L_E_F_0" transform="translate(0, 0)"><foreignObject width="0" height="0"><div xmlns="http://www.w3.org/1999/xhtml" class="labelBkg" style="display: table-cell; white-space: nowrap; line-height: 1.5; max-width: 200px; text-align: center;"><span class="edgeLabel"></span></div></foreignObject></g></g><g class="edgeLabel"><g class="label" data-id="L_E_KAF_0" transform="translate(0, 0)"><foreignObject width="0" height="0"><div xmlns="http://www.w3.org/1999/xhtml" class="labelBkg" style="display: table-cell; white-space: nowrap; line-height: 1.5; max-width: 200px; text-align: center;"><span class="edgeLabel"></span></div></foreignObject></g></g><g class="edgeLabel"><g class="label" data-id="L_E_J_0" transform="translate(0, 0)"><foreignObject width="0" height="0"><div xmlns="http://www.w3.org/1999/xhtml" class="labelBkg" style="display: table-cell; white-space: nowrap; line-height: 1.5; max-width: 200px; text-align: center;"><span class="edgeLabel"></span></div></foreignObject></g></g><g class="edgeLabel"><g class="label" data-id="L_E_K_0" transform="translate(0, 0)"><foreignObject width="0" height="0"><div xmlns="http://www.w3.org/1999/xhtml" class="labelBkg" style="display: table-cell; white-space: nowrap; line-height: 1.5; max-width: 200px; text-align: center;"><span class="edgeLabel"></span></div></foreignObject></g></g><g class="edgeLabel"><g class="label" data-id="L_E_G_0" transform="translate(0, 0)"><foreignObject width="0" height="0"><div xmlns="http://www.w3.org/1999/xhtml" class="labelBkg" style="display: table-cell; white-space: nowrap; line-height: 1.5; max-width: 200px; text-align: center;"><span class="edgeLabel"></span></div></foreignObject></g></g><g class="edgeLabel"><g class="label" data-id="L_E_DB_0" transform="translate(0, 0)"><foreignObject width="0" height="0"><div xmlns="http://www.w3.org/1999/xhtml" class="labelBkg" style="display: table-cell; white-space: nowrap; line-height: 1.5; max-width: 200px; text-align: center;"><span class="edgeLabel"></span></div></foreignObject></g></g><g class="edgeLabel"><g class="label" data-id="L_P_DB_0" transform="translate(0, 0)"><foreignObject width="0" height="0"><div xmlns="http://www.w3.org/1999/xhtml" class="labelBkg" style="display: table-cell; white-space: nowrap; line-height: 1.5; max-width: 200px; text-align: center;"><span class="edgeLabel"></span></div></foreignObject></g></g></g><g class="nodes"><g class="node default" id="flowchart-U-0" transform="translate(84.90625, 267)"><rect class="basic label-container" style="" x="-76.90625" y="-27" width="153.8125" height="54"/><g class="label" style="" transform="translate(-46.90625, -12)"><rect/><foreignObject width="93.8125" height="24"><div xmlns="http://www.w3.org/1999/xhtml" style="display: table-cell; white-space: nowrap; line-height: 1.5; max-width: 200px; text-align: center;"><span class="nodeLabel"><p>User Browser</p></span></div></foreignObject></g></g><g class="node default" id="flowchart-N-1" transform="translate(309.2265625, 267)"><rect class="basic label-container" style="" x="-97.4140625" y="-27" width="194.828125" height="54"/><g class="label" style="" transform="translate(-67.4140625, -12)"><rect/><foreignObject width="134.828125" height="24"><div xmlns="http://www.w3.org/1999/xhtml" style="display: table-cell; white-space: nowrap; line-height: 1.5; max-width: 200px; text-align: center;"><span class="nodeLabel"><p>Next.js App Router</p></span></div></foreignObject></g></g><g class="node default" id="flowchart-E-3" transform="translate(599.6171875, 700)"><rect class="basic label-container" style="" x="-117.9765625" y="-27" width="235.953125" height="54"/><g class="label" style="" transform="translate(-87.9765625, -12)"><rect/><foreignObject width="175.953125" height="24"><div xmlns="http://www.w3.org/1999/xhtml" style="display: table-cell; white-space: nowrap; line-height: 1.5; max-width: 200px; text-align: center;"><span class="nodeLabel"><p>Express API Orchestrator</p></span></div></foreignObject></g></g><g class="node default" id="flowchart-P-5" transform="translate(942.9296875, 70)"><rect class="basic label-container" style="" x="-91.78125" y="-27" width="183.5625" height="54"/><g class="label" style="" transform="translate(-61.78125, -12)"><rect/><foreignObject width="123.5625" height="24"><div xmlns="http://www.w3.org/1999/xhtml" style="display: table-cell; white-space: nowrap; line-height: 1.5; max-width: 200px; text-align: center;"><span class="nodeLabel"><p>Python AI Service</p></span></div></foreignObject></g></g><g class="node default" id="flowchart-W-7" transform="translate(599.6171875, 246)"><rect class="basic label-container" style="" x="-82.4921875" y="-27" width="164.984375" height="54"/><g class="label" style="" transform="translate(-52.4921875, -12)"><rect/><foreignObject width="104.984375" height="24"><div xmlns="http://www.w3.org/1999/xhtml" style="display: table-cell; white-space: nowrap; line-height: 1.5; max-width: 200px; text-align: center;"><span class="nodeLabel"><p>Redis</p></span></div></foreignObject></g></g><g class="node default" id="flowchart-O-9" transform="translate(942.9296875, 544)"><rect class="basic label-container" style="" x="-82.7734375" y="-27" width="165.546875" height="54"/><g class="label" style="" transform="translate(-52.7734375, -12)"><rect/><foreignObject width="105.546875" height="24"><div xmlns="http://www.w3.org/1999/xhtml" style="display: table-cell; white-space: nowrap; line-height: 1.5; max-width: 200px; text-align: center;"><span class="nodeLabel"><p>Orders Domain</p></span></div></foreignObject></g></g><g class="node default" id="flowchart-C-11" transform="translate(942.9296875, 648)"><rect class="basic label-container" style="" x="-74.375" y="-27" width="148.75" height="54"/><g class="label" style="" transform="translate(-44.375, -12)"><rect/><foreignObject width="88.75" height="24"><div xmlns="http://www.w3.org/1999/xhtml" style="display: table-cell; white-space: nowrap; line-height: 1.5; max-width: 200px; text-align: center;"><span class="nodeLabel"><p>Cart Domain</p></span></div></foreignObject></g></g><g class="node default" id="flowchart-A-13" transform="translate(942.9296875, 752)"><rect class="basic label-container" style="" x="-112.0234375" y="-27" width="224.046875" height="54"/><g class="label" style="" transform="translate(-82.0234375, -12)"><rect/><foreignObject width="164.046875" height="24"><div xmlns="http://www.w3.org/1999/xhtml" style="display: table-cell; white-space: nowrap; line-height: 1.5; max-width: 200px; text-align: center;"><span class="nodeLabel"><p>Accounts/Auth Domain</p></span></div></foreignObject></g></g><g class="node default" id="flowchart-PR-15" transform="translate(942.9296875, 856)"><rect class="basic label-container" style="" x="-89.796875" y="-27" width="179.59375" height="54"/><g class="label" style="" transform="translate(-59.796875, -12)"><rect/><foreignObject width="119.59375" height="24"><div xmlns="http://www.w3.org/1999/xhtml" style="display: table-cell; white-space: nowrap; line-height: 1.5; max-width: 200px; text-align: center;"><span class="nodeLabel"><p>Products Domain</p></span></div></foreignObject></g></g><g class="node default" id="flowchart-F-17" transform="translate(942.9296875, 960)"><rect class="basic label-container" style="" x="-91.8828125" y="-27" width="183.765625" height="54"/><g class="label" style="" transform="translate(-61.8828125, -12)"><rect/><foreignObject width="123.765625" height="24"><div xmlns="http://www.w3.org/1999/xhtml" style="display: table-cell; white-space: nowrap; line-height: 1.5; max-width: 200px; text-align: center;"><span class="nodeLabel"><p>Favorites Domain</p></span></div></foreignObject></g></g><g class="node default" id="flowchart-KAF-19" transform="translate(942.9296875, 1064)"><rect class="basic label-container" style="" x="-95.109375" y="-27" width="190.21875" height="54"/><g class="label" style="" transform="translate(-65.109375, -12)"><rect/><foreignObject width="130.21875" height="24"><div xmlns="http://www.w3.org/1999/xhtml" style="display: table-cell; white-space: nowrap; line-height: 1.5; max-width: 200px; text-align: center;"><span class="nodeLabel"><p>Kafelot Guardrails</p></span></div></foreignObject></g></g><g class="node default" id="flowchart-J-21" transform="translate(942.9296875, 174)"><rect class="basic label-container" style="" x="-102.21875" y="-27" width="204.4375" height="54"/><g class="label" style="" transform="translate(-72.21875, -12)"><rect/><foreignObject width="144.4375" height="24"><div xmlns="http://www.w3.org/1999/xhtml" style="display: table-cell; white-space: nowrap; line-height: 1.5; max-width: 200px; text-align: center;"><span class="nodeLabel"><p>Java Invoice Service</p></span></div></foreignObject></g></g><g class="node default" id="flowchart-K-23" transform="translate(942.9296875, 278)"><rect class="basic label-container" style="" x="-125.3359375" y="-27" width="250.671875" height="54"/><g class="label" style="" transform="translate(-95.3359375, -12)"><rect/><foreignObject width="190.671875" height="24"><div xmlns="http://www.w3.org/1999/xhtml" style="display: table-cell; white-space: nowrap; line-height: 1.5; max-width: 200px; text-align: center;"><span class="nodeLabel"><p>Kotlin Subscription Service</p></span></div></foreignObject></g></g><g class="node default" id="flowchart-G-25" transform="translate(942.9296875, 382)"><rect class="basic label-container" style="" x="-83.453125" y="-27" width="166.90625" height="54"/><g class="label" style="" transform="translate(-53.453125, -12)"><rect/><foreignObject width="106.90625" height="24"><div xmlns="http://www.w3.org/1999/xhtml" style="display: table-cell; white-space: nowrap; line-height: 1.5; max-width: 200px; text-align: center;"><span class="nodeLabel"><p>Go Ops Service</p></span></div></foreignObject></g></g><g class="node default" id="flowchart-DB-27" transform="translate(1190.3515625, 577)"><path d="M0,10.741783702858772 a47.0859375,10.741783702858772 0,0,0 94.171875,0 a47.0859375,10.741783702858772 0,0,0 -94.171875,0 l0,49.74178370285877 a47.0859375,10.741783702858772 0,0,0 94.171875,0 l0,-49.74178370285877" class="basic label-container" style="" transform="translate(-47.0859375, -35.61267555428816)"/><g class="label" style="" transform="translate(-39.5859375, -2)"><rect/><foreignObject width="79.171875" height="24"><div xmlns="http://www.w3.org/1999/xhtml" style="display: table-cell; white-space: nowrap; line-height: 1.5; max-width: 200px; text-align: center;"><span class="nodeLabel"><p>PostgreSQL</p></span></div></foreignObject></g></g></g></g></g></svg>